<svg width="30" height="30" viewBox="0 0 30 30" fill="none" xmlns="http://www.w3.org/2000/svg">
<title>Search</title>
<path fill="#009bd6" fill-rule="evenodd" clip-rule="evenodd" d="M21.4876 19.3477L29.5572 27.4175C29.8409 27.7014 30.0001 28.0863 30 28.4875C29.9999 28.8888 29.8403 29.2736 29.5565 29.5572C29.2727 29.8409 28.8878 30.0001 28.4865 30C28.0852 29.9999 27.7005 29.8403 27.4168 29.5565L19.3472 21.4867C16.9349 23.3551 13.9014 24.2344 10.8638 23.9456C7.82622 23.6568 5.01273 22.2217 2.9957 19.9321C0.978669 17.6425 -0.0903934 14.6705 0.00599421 11.6207C0.102382 8.57085 1.35698 5.67228 3.51456 3.51465C5.67214 1.35701 8.57064 0.102384 11.6204 0.00599436C14.6702 -0.0903956 17.6421 0.978694 19.9316 2.99577C22.2211 5.01286 23.6562 7.82641 23.945 10.8641C24.2338 13.9017 23.3545 16.9353 21.4861 19.3477H21.4876ZM12.0006 20.9992C14.3874 20.9992 16.6765 20.051 18.3642 18.3632C20.052 16.6754 21.0001 14.3863 21.0001 11.9994C21.0001 9.61246 20.052 7.32333 18.3642 5.63553C16.6765 3.94774 14.3874 2.99955 12.0006 2.99955C9.61372 2.99955 7.32464 3.94774 5.63689 5.63553C3.94914 7.32333 3.00098 9.61246 3.00098 11.9994C3.00098 14.3863 3.94914 16.6754 5.63689 18.3632C7.32464 20.051 9.61372 20.9992 12.0006 20.9992Z" />
</svg>
