<svg xmlns="http://www.w3.org/2000/svg" width="30" height="30" viewBox="0 0 30 30">
  <g fill="#ccc" fill-rule="evenodd">
    <path d="M27,30 L3,30 C1.346,30 0,28.654 0,27 L0,5 C0,3.346 1.122,2 2.5,2 L4,2 L4,4 L2.5,4 C2.328,4 2,4.39 2,5 L2,27 C2,27.551 2.449,28 3,28 L27,28 C27.551,28 28,27.551 28,27 L28,5 C28,4.39 27.672,4 27.5,4 L26,4 L26,2 L27.5,2 C28.878,2 30,3.346 30,5 L30,27 C30,28.654 28.654,30 27,30"/>
    <path d="M7 6C6.448 6 6 5.552 6 5L6 1C6 .448 6.448 0 7 0 7.552 0 8 .448 8 1L8 5C8 5.552 7.552 6 7 6M23 6C22.448 6 22 5.552 22 5L22 1C22 .448 22.448 0 23 0 23.552 0 24 .448 24 1L24 5C24 5.552 23.552 6 23 6"/>
    <polygon points="10 2 20 2 20 4 10 4"/>
    <polygon points="2 8 28 8 28 10 2 10"/>
    <polygon points="24 12 26 12 26 14 24 14"/>
    <polygon points="20 12 22 12 22 14 20 14"/>
    <polygon points="16 12 18 12 18 14 16 14"/>
    <polygon points="12 12 14 12 14 14 12 14"/>
    <polygon points="8 12 10 12 10 14 8 14"/>
    <polygon points="24 16 26 16 26 18 24 18"/>
    <polygon points="20 16 22 16 22 18 20 18"/>
    <polygon points="16 16 18 16 18 18 16 18"/>
    <polygon points="12 16 14 16 14 18 12 18"/>
    <polygon points="8 16 10 16 10 18 8 18"/>
    <polygon points="4 16 6 16 6 18 4 18"/>
    <polygon points="24 20 26 20 26 22 24 22"/>
    <polygon points="20 20 22 20 22 22 20 22"/>
    <polygon points="16 20 18 20 18 22 16 22"/>
    <polygon points="12 20 14 20 14 22 12 22"/>
    <polygon points="8 20 10 20 10 22 8 22"/>
    <polygon points="4 20 6 20 6 22 4 22"/>
    <polygon points="20 24 22 24 22 26 20 26"/>
    <polygon points="16 24 18 24 18 26 16 26"/>
    <polygon points="12 24 14 24 14 26 12 26"/>
    <polygon points="8 24 10 24 10 26 8 26"/>
    <polygon points="4 24 6 24 6 26 4 26"/>
  </g>
</svg>
