<svg xmlns="http://www.w3.org/2000/svg" width="20" height="12" viewBox="0 0 20 12">
  <path fill="#CCC" fill-rule="evenodd" d="M2.15132685,18.9388595 C2.25537485,19.0765694 2.42674685,19.1454243 2.56445684,19.1454243 C2.73582885,19.1454243 2.87353885,19.0765694 3.00971885,18.9388595 L11.9394358,10.0091426 C12.0771458,9.90662524 12.1459998,9.73525301 12.1459998,9.59754319 C12.1459998,9.42617096 12.0771458,9.25479874 11.9394358,9.15075131 L3.00971885,0.221034285 C2.87353885,0.084854565 2.73582885,0.015999655 2.56445684,0.015999655 C2.42674685,0.015999655 2.25537485,0.084854565 2.15132685,0.221034285 L1.19041885,1.18347294 C1.05270885,1.28599025 0.983853845,1.45736248 0.983853845,1.5950723 C0.983853845,1.76644453 1.05270885,1.93934686 1.19041885,2.04186417 L8.71090485,9.59754319 L1.19041885,17.1195598 C1.05270885,17.2557395 0.983853845,17.3934493 0.983853845,17.5648215 C0.983853845,17.7377239 1.05270885,17.8739036 1.19041885,18.0116134 L2.15132685,18.9388595 Z" transform="rotate(90 10 9.5)"/>
</svg>
