<svg xmlns="http://www.w3.org/2000/svg" width="26" height="21" viewBox="0 0 26 21">
  <path fill="#ccc" fill-rule="evenodd" d="M1194.4,250.525 C1193.62,250.2625 1188.81,250 1184,250 C1179.19,250 1174.38,250.2625 1173.6,250.525 C1171.52,251.18125 1171,255.775 1171,260.5 C1171,265.225 1171.52,269.81875 1173.6,270.475 C1174.38,270.7375 1179.19,271 1184,271 C1188.81,271 1193.62,270.7375 1194.4,270.475 C1196.48,269.81875 1197,265.225 1197,260.5 C1197,255.775 1196.48,251.18125 1194.4,250.525 L1194.4,250.525 Z M1181,267 L1181,255 L1189,261 L1181,267 L1181,267 Z" transform="translate(-1171 -250)"/>
</svg>
