<svg xmlns="http://www.w3.org/2000/svg" width="15" height="29" viewBox="0 0 15 29">
    <title>Facebook</title>
  <path fill="#fff" fill-rule="evenodd" d="M969.417456,273.872174 L974.737255,273.872174 L974.737255,260.711286 L979.156097,260.711286 L979.839438,255.578609 L974.737255,255.578609 L974.737255,252.279724 C974.737255,251.471636 974.924377,250.849283 975.26674,250.414052 C975.609103,250.009315 976.26195,249.7917 977.257159,249.7917 L979.964186,249.7917 L979.964186,245.217616 C979.03135,245.062374 977.724271,245 976.01384,245 C974.022035,245 972.404472,245.590473 971.222141,246.77419 C970.009315,247.955136 969.417456,249.635072 969.417456,251.782119 L969.417456,255.578609 L965,255.578609 L965,260.711286 L969.417456,260.711286 L969.417456,273.872174 Z" transform="translate(-965 -245)"/>
</svg>
