<svg xmlns="http://www.w3.org/2000/svg" width="27" height="22" viewBox="0 0 27 22">
  <path fill="#ccc" fill-rule="evenodd" d="M1039.22307,272.272467 C1041.1305,272.272467 1042.91715,271.975136 1044.61618,271.379145 C1046.28469,270.752626 1047.71427,269.948238 1048.90625,268.935453 C1050.0677,267.922668 1051.11102,266.761218 1051.97514,265.449774 C1052.80873,264.109128 1053.46445,262.737952 1053.88124,261.308373 C1054.29936,259.878793 1054.50776,258.447885 1054.50776,256.987776 L1054.50776,256.302852 C1055.54975,255.528994 1056.4444,254.605143 1057.18905,253.532626 C1056.14574,253.949421 1055.13295,254.246752 1054.08964,254.337014 C1055.25242,253.650762 1056.05681,252.668507 1056.4444,251.387593 C1055.40108,252.012785 1054.26883,252.460109 1053.04765,252.697709 C1051.97514,251.565461 1050.66369,251 1049.11465,251 C1047.65454,251 1046.37362,251.505729 1045.33031,252.549043 C1044.28832,253.62156 1043.75206,254.873272 1043.75206,256.362584 C1043.75206,256.750176 1043.8118,257.166971 1043.90073,257.583766 C1041.69597,257.494832 1039.63987,256.928044 1037.70323,255.945789 C1035.79712,254.933004 1034.15782,253.62156 1032.81717,251.983583 C1032.34065,252.817173 1032.07252,253.710494 1032.07252,254.694077 C1032.07252,255.587398 1032.31144,256.451518 1032.72824,257.255905 C1033.17556,258.031091 1033.74102,258.656283 1034.48568,259.163339 C1033.62156,259.13281 1032.81717,258.89521 1032.04331,258.478415 L1032.04331,258.538147 C1032.04331,259.848263 1032.46011,260.980512 1033.2645,261.964094 C1034.09809,262.947677 1035.11087,263.54234 1036.36258,263.810469 C1035.88606,263.929933 1035.40953,263.989664 1034.933,263.989664 C1034.63435,263.989664 1034.30648,263.960462 1033.92022,263.90073 C1034.27728,264.973247 1034.90247,265.866569 1035.82633,266.55282 C1036.75018,267.266946 1037.79349,267.62401 1038.95494,267.62401 C1036.9891,269.17438 1034.78434,269.919036 1032.28091,269.919036 C1031.80439,269.919036 1031.38759,269.919036 1031,269.859304 C1033.47289,271.468079 1036.24312,272.272467 1039.22307,272.272467" transform="translate(-1031 -251)"/>
</svg>
