<svg xmlns="http://www.w3.org/2000/svg" width="24" height="23" viewBox="0 0 24 23">
  <path fill="#ccc" fill-rule="evenodd" d="M1101.75594,253.430896 C1102.24224,253.917199 1102.91873,254.16035 1103.72883,254.16035 L1103.75652,254.16035 C1104.62079,254.16035 1105.29608,253.917199 1105.80886,253.430896 C1106.32285,252.916907 1106.566,252.322269 1106.566,251.566332 C1106.566,250.836878 1106.29517,250.215758 1105.80886,249.729455 C1105.32256,249.243152 1104.64727,249 1103.80948,249 C1102.97169,249 1102.29641,249.243152 1101.78362,249.729455 C1101.26963,250.215758 1101,250.836878 1101,251.566332 C1101,252.322269 1101.24315,252.916907 1101.75594,253.430896 L1101.75594,253.430896 Z M1101.29732,271.127997 L1106.26869,271.127997 L1106.26869,256.213898 L1101.29732,256.213898 L1101.29732,271.127997 Z M1113.96889,271.127997 L1113.96889,262.805472 C1113.96889,262.292687 1114.02305,261.887033 1114.13139,261.589714 C1114.34685,261.076929 1114.67186,260.644794 1115.10399,260.293307 C1115.50844,259.941821 1116.04892,259.779318 1116.69772,259.779318 C1117.56199,259.779318 1118.18311,260.076637 1118.58877,260.671275 C1118.99442,261.265913 1119.20989,262.103703 1119.20989,263.156959 L1119.20989,271.127997 L1124.18125,271.127997 L1124.18125,262.590006 C1124.18125,260.373956 1123.66847,258.699581 1122.61521,257.564472 C1121.56075,256.429364 1120.18249,255.862411 1118.45395,255.862411 C1117.83283,255.862411 1117.23819,255.943061 1116.7242,256.105563 C1116.21142,256.24038 1115.77928,256.457049 1115.40131,256.753165 C1115.04983,257.024002 1114.77899,257.293635 1114.56352,257.537991 C1114.34685,257.779938 1114.13139,258.050776 1113.9412,258.374576 L1113.96889,258.374576 L1113.96889,256.213898 L1108.99752,256.213898 L1109.024,256.943353 L1109.024,261.40073 C1109.024,263.886413 1109.024,267.129237 1108.99752,271.127997 L1113.96889,271.127997 L1113.96889,271.127997 Z" transform="translate(-1101 -249)"/>
</svg>
