<svg xmlns="http://www.w3.org/2000/svg" version="1.1" xmlns:xlink="http://www.w3.org/1999/xlink" xmlns:svgjs="http://svgjs.com/svgjs" viewBox="0 0 20 20" width="20" height="20"><g transform="matrix(0.8333333333333334,0,0,0.8333333333333334,0,0)"><path d="M20.06,3.5H3.94A3.94,3.94,0,0,0,0,7.44v9.12A3.94,3.94,0,0,0,3.94,20.5H20.06A3.94,3.94,0,0,0,24,16.56V7.44A3.94,3.94,0,0,0,20.06,3.5ZM16.54,12,9.77,16.36A.5.5,0,0,1,9,15.94V7.28a.5.5,0,0,1,.77-.42l6.77,4.33a.5.5,0,0,1,0,.84Z" fill="#000000" stroke="none" stroke-linecap="round" stroke-linejoin="round" stroke-width="0"></path></g></svg>