<svg xmlns="http://www.w3.org/2000/svg" width="20" height="20" viewBox="0 0 20 20">
  <path d="M10,1.8025 C12.67,1.8025 12.9866667,1.8125 14.0416667,1.86083333 C16.7516667,1.98416667 18.0175,3.27 18.1408333,5.96 C18.1891667,7.01416667 18.1983333,7.33083333 18.1983333,10.0008333 C18.1983333,12.6716667 18.1883333,12.9875 18.1408333,14.0416667 C18.0166667,16.7291667 16.7541667,18.0175 14.0416667,18.1408333 C12.9866667,18.1891667 12.6716667,18.1991667 10,18.1991667 C7.33,18.1991667 7.01333333,18.1891667 5.95916667,18.1408333 C3.2425,18.0166667 1.98333333,16.725 1.86,14.0408333 C1.81166667,12.9866667 1.80166667,12.6708333 1.80166667,10 C1.80166667,7.33 1.8125,7.01416667 1.86,5.95916667 C1.98416667,3.27 3.24666667,1.98333333 5.95916667,1.86 C7.01416667,1.8125 7.33,1.8025 10,1.8025 L10,1.8025 Z M10,0 C7.28416667,0 6.94416667,0.0116666667 5.8775,0.06 C2.24583333,0.226666667 0.2275,2.24166667 0.0608333333,5.87666667 C0.0116666667,6.94416667 0,7.28416667 0,10 C0,12.7158333 0.0116666667,13.0566667 0.06,14.1233333 C0.226666667,17.755 2.24166667,19.7733333 5.87666667,19.94 C6.94416667,19.9883333 7.28416667,20 10,20 C12.7158333,20 13.0566667,19.9883333 14.1233333,19.94 C17.7516667,19.7733333 19.775,17.7583333 19.9391667,14.1233333 C19.9883333,13.0566667 20,12.7158333 20,10 C20,7.28416667 19.9883333,6.94416667 19.94,5.8775 C19.7766667,2.24916667 17.7591667,0.2275 14.1241667,0.0608333333 C13.0566667,0.0116666667 12.7158333,0 10,0 Z M10,4.865 C7.16416667,4.865 4.865,7.16416667 4.865,10 C4.865,12.8358333 7.16416667,15.1358333 10,15.1358333 C12.8358333,15.1358333 15.135,12.8366667 15.135,10 C15.135,7.16416667 12.8358333,4.865 10,4.865 Z M10,13.3333333 C8.15916667,13.3333333 6.66666667,11.8416667 6.66666667,10 C6.66666667,8.15916667 8.15916667,6.66666667 10,6.66666667 C11.8408333,6.66666667 13.3333333,8.15916667 13.3333333,10 C13.3333333,11.8416667 11.8408333,13.3333333 10,13.3333333 Z M15.3383333,3.4625 C14.675,3.4625 14.1375,4 14.1375,4.6625 C14.1375,5.325 14.675,5.8625 15.3383333,5.8625 C16.0008333,5.8625 16.5375,5.325 16.5375,4.6625 C16.5375,4 16.0008333,3.4625 15.3383333,3.4625 Z"/>
</svg>
