<svg aria-labelledby="youtube-logo" xmlns="http://www.w3.org/2000/svg" width="27" height="24" viewBox="0 0 27 16" fill="none">
    <title id="youtube-logo">YouTube</title>
    <path d="M22.0508 0.400391H4.58743C3.46062 0.41717 2.38468 0.872255 1.58782 1.66911C0.790956 2.46597 0.335871 3.54192 0.319092 4.66872L0.319092 14.5487C0.335871 15.6755 0.790956 16.7515 1.58782 17.5483C2.38468 18.3452 3.46062 18.8003 4.58743 18.8171H22.0508C23.1776 18.8003 24.2535 18.3452 25.0504 17.5483C25.8472 16.7515 26.3023 15.6755 26.3191 14.5487V4.66872C26.3023 3.54192 25.8472 2.46597 25.0504 1.66911C24.2535 0.872255 23.1776 0.41717 22.0508 0.400391ZM18.2374 9.60872L10.9033 14.3321C10.8175 14.3915 10.715 14.4219 10.6108 14.4187C10.52 14.4192 10.4306 14.3968 10.3508 14.3537C10.266 14.3061 10.1954 14.2369 10.1459 14.1532C10.0965 14.0695 10.07 13.9743 10.0691 13.8771V4.49539C10.07 4.39818 10.0965 4.30292 10.1459 4.21923C10.1954 4.13554 10.266 4.06637 10.3508 4.01872C10.434 3.96801 10.5296 3.94118 10.627 3.94118C10.7245 3.94118 10.82 3.96801 10.9033 4.01872L18.2374 8.70956C18.3134 8.75866 18.376 8.82603 18.4192 8.90551C18.4625 8.985 18.4852 9.07405 18.4852 9.16456C18.4852 9.25506 18.4625 9.34412 18.4192 9.4236C18.376 9.50308 18.3134 9.57045 18.2374 9.61956V9.60872Z" fill="white"/>
</svg>
