<svg aria-labelledby="linkedin-logo" xmlns="http://www.w3.org/2000/svg" width="23" height="23" viewBox="0 0 23 23" fill="none">
    <title id="linkedin-logo">LinkedIn</title>
    <path d="M5.19017 22.4004H0.628935V7.71225H5.19017V22.4004ZM2.9068 5.70868C1.44846 5.70868 0.265137 4.50025 0.265137 3.04196C0.265137 2.34137 0.543454 1.66948 1.03886 1.17409C1.53427 0.678698 2.20619 0.400391 2.9068 0.400391C3.60742 0.400391 4.27933 0.678698 4.77474 1.17409C5.27015 1.66948 5.54847 2.34137 5.54847 3.04196C5.54847 4.50025 4.36514 5.70868 2.9068 5.70868ZM22.2612 22.4004H17.7102V15.2504C17.7102 13.5462 17.6756 11.3611 15.3388 11.3611C12.9674 11.3611 12.6036 13.2122 12.6036 15.1278V22.4004H8.04713V7.71225H12.4214V9.71582H12.485C13.094 8.5616 14.5814 7.34375 16.8003 7.34375C21.4165 7.34375 22.2651 10.3837 22.2651 14.3319V22.4004H22.2612Z" fill="white"/>
</svg>
