<svg aria-labelledby="instagram-logo" xmlns="http://www.w3.org/2000/svg" width="24" height="24" viewBox="0 0 24 23" fill="none">
    <title id="instagram-logo">Instagram</title>
    <path fill-rule="evenodd" clip-rule="evenodd" d="M5.64415 11.9004C5.64415 15.2031 8.32148 17.8804 11.6241 17.8804C14.9268 17.8804 17.6041 15.2031 17.6041 11.9004C17.6041 8.59773 14.9268 5.92039 11.6241 5.92039C8.32148 5.92039 5.64415 8.59773 5.64415 11.9004ZM15.5006 11.9004C15.5006 14.0413 13.7651 15.7769 11.6241 15.7769C9.48322 15.7769 7.74766 14.0413 7.74766 11.9004C7.74766 9.75947 9.48322 8.02391 11.6241 8.02391C13.7651 8.02391 15.5006 9.75947 15.5006 11.9004Z" fill="white"/>
    <path fill-rule="evenodd" clip-rule="evenodd" d="M6.72619 0.400391C3.07966 0.400391 0.124146 3.37182 0.124146 7.03759V16.7632C0.124146 20.4285 3.08013 23.4004 6.72619 23.4004H16.5221C20.1686 23.4004 23.1241 20.429 23.1241 16.7632V7.03759C23.1241 3.37229 20.1682 0.400391 16.5221 0.400391H6.72619ZM2.25378 16.7632V7.03759C2.25378 4.55421 4.25586 2.54135 6.72619 2.54135H16.5221C18.992 2.54135 20.9945 4.55468 20.9945 7.03759V16.7632C20.9945 19.2466 18.9924 21.2594 16.5221 21.2594H6.72619C4.25632 21.2594 2.25378 19.2461 2.25378 16.7632Z" fill="white"/>
    <path d="M19.4441 5.46039C19.4441 6.22254 18.8263 6.84039 18.0641 6.84039C17.302 6.84039 16.6841 6.22254 16.6841 5.46039C16.6841 4.69824 17.302 4.08039 18.0641 4.08039C18.8263 4.08039 19.4441 4.69824 19.4441 5.46039Z" fill="white"/>
</svg>
