<svg xmlns="http://www.w3.org/2000/svg" version="1.1" xmlns:xlink="http://www.w3.org/1999/xlink" xmlns:svgjs="http://svgjs.com/svgjs" viewBox="0 0 20 20" width="20" height="20"><g transform="matrix(0.8333333333333334,0,0,0.8333333333333334,0,0)"><path d="M18.14,7.17A.5.5,0,0,0,17.77,7H14V5.59c0-.28.06-.6.51-.6h3a.44.44,0,0,0,.35-.15A.5.5,0,0,0,18,4.5V.5a.5.5,0,0,0-.5-.5H13.17C8.37,0,8,4.1,8,5.35V7H5.5a.5.5,0,0,0-.5.5v4a.5.5,0,0,0,.5.5H8V23.5a.5.5,0,0,0,.5.5h5a.5.5,0,0,0,.5-.5V12h3.35a.5.5,0,0,0,.5-.45l.42-4A.5.5,0,0,0,18.14,7.17Z" fill="#000000" stroke="none" stroke-linecap="round" stroke-linejoin="round" stroke-width="0"></path></g></svg>