<svg xmlns="http://www.w3.org/2000/svg" version="1.1" xmlns:xlink="http://www.w3.org/1999/xlink" xmlns:svgjs="http://svgjs.com/svgjs" viewBox="0 0 20 20" width="20" height="20"><g transform="matrix(0.8333333333333334,0,0,0.8333333333333334,0,0)"><path d="M21,20.5A3.5,3.5,0,0,0,17.5,17h-5A2.5,2.5,0,0,1,10,14.5v-2a.5.5,0,0,1,.5-.5h7a3.5,3.5,0,0,0,0-7h-7a.5.5,0,0,1-.5-.5v-1a3.5,3.5,0,0,0-7,0v12A8.51,8.51,0,0,0,11.5,24h6A3.5,3.5,0,0,0,21,20.5Z" fill="#000000" stroke="none" stroke-linecap="round" stroke-linejoin="round" stroke-width="0"></path></g></svg>