<svg xmlns="http://www.w3.org/2000/svg" version="1.1" xmlns:xlink="http://www.w3.org/1999/xlink" xmlns:svgjs="http://svgjs.com/svgjs" viewBox="0 0 20 20" width="20" height="20"><g transform="matrix(0.8333333333333334,0,0,0.8333333333333334,0,0)"><path d="M17.5,0H6.5A6.51,6.51,0,0,0,0,6.5v11A6.51,6.51,0,0,0,6.5,24h11A6.51,6.51,0,0,0,24,17.5V6.5A6.51,6.51,0,0,0,17.5,0ZM12,17.5A5.5,5.5,0,1,1,17.5,12,5.5,5.5,0,0,1,12,17.5Zm6.5-11A1.5,1.5,0,1,1,20,5,1.5,1.5,0,0,1,18.5,6.5Z" fill="#000000" stroke="none" stroke-linecap="round" stroke-linejoin="round" stroke-width="0"></path></g></svg>