<svg xmlns="http://www.w3.org/2000/svg" width="20" height="12" viewBox="0 0 20 12">
  <path fill="#D6D6D6" fill-rule="evenodd" d="M318.151112,14.9392207 C318.25516,15.0769306 318.426532,15.1457855 318.564242,15.1457855 C318.735614,15.1457855 318.873324,15.0769306 319.009504,14.9392207 L327.939221,6.00950371 C328.076931,5.9069864 328.145785,5.73561417 328.145785,5.59790435 C328.145785,5.42653212 328.076931,5.2551599 327.939221,5.15111247 L319.009504,-3.77860456 C318.873324,-3.91478428 318.735614,-3.98363919 318.564242,-3.98363919 C318.426532,-3.98363919 318.25516,-3.91478428 318.151112,-3.77860456 L317.190204,-2.8161659 C317.052494,-2.71364859 316.983639,-2.54227636 316.983639,-2.40456654 C316.983639,-2.23319431 317.052494,-2.06029198 317.190204,-1.95777467 L324.71069,5.59790435 L317.190204,13.119921 C317.052494,13.2561007 316.983639,13.3938105 316.983639,13.5651827 C316.983639,13.7380851 317.052494,13.8742648 317.190204,14.0119746 L318.151112,14.9392207 Z" transform="rotate(90 166.065 -150.919)"/>
</svg>
