<svg xmlns="http://www.w3.org/2000/svg" width="208" height="32" viewBox="0 0 208 32">
  <g fill="none" fill-rule="evenodd">
    <path fill="#00ADEE" d="M35.2468375,22.11664 L37.5132476,19.36624 C39.0835159,20.67824 40.7269792,21.51024 42.7195666,21.51024 C44.2882552,21.51024 45.2350501,20.87984 45.2350501,19.8457067 L45.2350501,19.7955733 C45.2350501,18.81104 44.6368527,18.30704 41.7248527,17.5507733 C38.2120223,16.6409067 35.9456122,15.6579733 35.9456122,12.1513067 L35.9456122,12.1017067 C35.9456122,8.89797333 38.4868982,6.77904 42.0476476,6.77904 C44.5873539,6.77904 46.7552932,7.58597333 48.5235565,9.02437333 L46.5293894,11.95024 C44.9870299,10.8649067 43.4667868,10.2089067 41.9970957,10.2089067 C40.526878,10.2089067 39.7559615,10.8899733 39.7559615,11.74864 L39.7559615,11.7987733 C39.7559615,12.9587733 40.5031818,13.3379733 43.5168122,14.11984 C47.0528122,15.05264 49.0459261,16.33904 49.0459261,19.41744 L49.0459261,19.4681067 C49.0459261,22.9737067 46.4045894,24.9417067 42.6447919,24.9417067 C40.0045084,24.9417067 37.3394754,24.0073067 35.2468375,22.11664 L35.2468375,22.11664 Z"/>
    <polygon fill="#00ADEE" points="50.526 24.689 54.361 24.689 54.361 7.031 50.526 7.031"/>
    <polygon fill="#00ADEE" points="61.122 10.612 55.817 10.612 55.817 7.031 70.262 7.031 70.262 10.612 64.956 10.612 64.956 24.689 61.122 24.689"/>
    <polygon fill="#00ADEE" points="71.682 7.031 84.833 7.031 84.833 10.487 75.494 10.487 75.494 14.069 83.712 14.069 83.712 17.525 75.494 17.525 75.494 21.233 84.957 21.233 84.957 24.689 71.682 24.689"/>
    <path fill="#00ADEE" d="M15.8162673,20.7437333 L20.2643078,11.1490667 C20.277999,11.1208 20.27168,11.0866667 20.2495635,11.0648 L20.2495635,11.0648 C20.2279737,11.0429333 20.194799,11.0365333 20.1663635,11.0504 L10.7157914,15.5794667 C10.6899889,15.5917333 10.6741914,15.6184 10.6736648,15.6472 C10.674718,15.6765333 10.6915686,15.7016 10.7168446,15.7138667 L14.1264648,17.2664 L15.6819889,20.7432 C15.6856749,20.7512 15.6914673,20.7586667 15.6972597,20.7650667 C15.7104243,20.7778667 15.7288547,20.7869333 15.7488648,20.7869333 C15.7767737,20.7869333 15.8036294,20.7704 15.8162673,20.7437333"/>
    <path fill="#fff" d="M85.5660395 15.9101333L85.5660395 15.8605333C85.5660395 10.8402667 89.3010876 6.7288 94.6564294 6.7288 97.9444091 6.7288 99.9117205 7.83866667 101.530434 9.45306667L99.089199 12.3026667C97.7448344 11.0658667 96.3751939 10.3101333 94.6311534 10.3101333 91.6922977 10.3101333 89.5764901 12.7826667 89.5764901 15.8098667L89.5764901 15.8605333C89.5764901 18.8877333 91.6438522 21.4104 94.6311534 21.4104 96.6247939 21.4104 97.8448851 20.6018667 99.2145256 19.3416L101.655234 21.8386667C99.8616952 23.7810667 97.8696344 24.9917333 94.5074066 24.9917333 89.3758623 24.9917333 85.5660395 20.9810667 85.5660395 15.9101333M113.898114 13.1098667C113.898114 14.5984 112.829679 15.6074667 110.960838 15.6074667L107.075714 15.6074667 107.075714 10.5376 110.886064 10.5376C112.752271 10.5376 113.898114 11.3941333 113.898114 13.0597333L113.898114 13.1098667zM114.048717 18.3834667C116.266155 17.5504 117.784818 15.7589333 117.784818 12.9088L117.784818 12.8570667C117.784818 11.1925333 117.261395 9.8064 116.289325 8.82186667 115.143482 7.66293333 113.426297 7.03093333 111.208859 7.03093333L103.239563 7.03093333 103.239563 24.6885333 107.075714 24.6885333 107.075714 19.0394667 110.088292 19.0394667 113.824393 24.6885333 118.307714 24.6885333 114.048717 18.3834667zM125.542586 17.2989333L127.859022 11.5709333 130.175457 17.2989333 125.542586 17.2989333zM129.67731 6.9048L126.139731 6.9048 118.670161 24.6882667 122.580034 24.6882667 124.172946 20.7288 131.546151 20.7288 133.139062 24.6882667 137.148986 24.6882667 129.67731 6.9048z"/>
    <polygon fill="#fff" points="137.971 7.031 151.246 7.031 151.246 10.563 141.806 10.563 141.806 14.322 150.125 14.322 150.125 17.852 141.806 17.852 141.806 24.689 137.971 24.689"/>
    <polygon fill="#fff" points="157.91 10.612 152.604 10.612 152.604 7.031 167.049 7.031 167.049 10.612 161.744 10.612 161.744 24.689 157.91 24.689"/>
    <polygon fill="#fff" points="168.458 24.689 172.293 24.689 172.293 7.031 168.458 7.031"/>
    <polygon fill="#fff" points="174.076 7.031 177.611 7.031 185.78 17.902 185.78 7.031 189.567 7.031 189.567 24.689 186.303 24.689 177.86 13.464 177.86 24.689 174.076 24.689"/>
    <path fill="#fff" d="M190.899978 15.9101333L190.899978 15.8605333C190.899978 10.8402667 194.759826 6.7288 200.041446 6.7288 203.178823 6.7288 205.070833 7.58586667 206.889649 9.1496L204.473689 12.1016C203.129325 10.9661333 201.933983 10.3101333 199.916646 10.3101333 197.126813 10.3101333 194.911482 12.8072 194.911482 15.8098667L194.911482 15.8605333C194.911482 19.0888 197.102064 21.4605333 200.190995 21.4605333 201.584332 21.4605333 202.829699 21.1069333 203.801244 20.4008L203.801244 17.8797333 199.940342 17.8797333 199.940342 14.524 207.512069 14.524 207.512069 22.1922667C205.720109 23.7309333 203.253071 24.9917333 200.066195 24.9917333 194.636079 24.9917333 190.899978 21.1330667 190.899978 15.9101333M24.5868111 19.15312C24.1165732 20.44592 23.3656668 21.65872 22.3351453 22.6912533 18.5742947 26.4597867 12.5085934 26.4288533 8.78670987 22.61712 6.08586937 19.8517867 5.36181873 15.85712 6.60665924 12.43312 7.07689722 11.1397867 7.82675038 9.92858667 8.85885165 8.89605333 12.6197023 5.12698667 18.6859301 5.15952 22.4057073 8.96805333 25.1091808 11.7344533 25.8305985 15.7285867 24.5868111 19.15312M31.1090592 13.46192L27.9848466 12.72112C27.6773225 11.4485867 27.1797023 10.2224533 26.5040972 9.08965333L28.1907403 6.33232C28.2181225 6.28858667 28.2102238 6.23258667 28.1749428 6.19632L25.0707403 3.05178667C25.0354592 3.01605333 24.9791149 3.00912 24.9364618 3.03632L22.2198238 4.74298667C21.091358 4.04912 19.8775858 3.54778667 18.6264263 3.24058667L17.894477.0853866667C17.8823656.0352533333 17.8391858.0000533333333 17.7875808.0000533333333L13.3985175.0000533333333C13.3479656.0000533333333 13.3032061.0352533333 13.2916213.0853866667L12.5623048 3.24112C11.3121985 3.54938667 10.1005327 4.05178667 8.97101367 4.74672L6.25279595 3.04112C6.2096162 3.01445333 6.1532719 3.02032 6.11799089 3.05712L3.01326177 6.20112C2.97745418 6.23738667 2.97166177 6.29392 2.99851747 6.33765333L4.68358076 9.08965333C4.26284152 9.79312 3.90423899 10.53552 3.61883139 11.3189867 3.44979848 11.7829867 3.31078076 12.25392 3.19703899 12.7285867L.083884557 13.4688533C.0354389873 13.48112.000157974684 13.5253867.000157974684 13.5765867L.000157974684 18.02352C.000157974684 18.0741867.0354389873 18.11952.0844111392 18.13072L3.21020354 18.8725867C3.51878076 20.14352 4.01640101 21.3680533 4.69095291 22.4997867L3.00273013 25.26032C2.97692759 25.3040533 2.98272 25.3605867 3.01852759 25.39632L6.12273013 28.5408533C6.15853772 28.57712 6.21435544 28.58352 6.25753519 28.55632L8.97469975 26.8496533C10.0878947 27.53712 11.2979808 28.0416533 12.5665175 28.3525867L13.2989934 31.5077867C13.3100516 31.55792 13.3548111 31.59312 13.405363 31.59312L17.7949529 31.59312C17.8460314 31.59312 17.8897377 31.55792 17.9013225 31.5077867L18.6295858 28.3552533C19.8986491 28.0432533 21.1066289 27.5344533 22.2219301 26.8453867L24.9406744 28.55152C24.9838542 28.57872 25.0391453 28.57232 25.0754795 28.5360533L28.1791554 25.39152C28.2154896 25.3557867 28.2218086 25.2992533 28.1949529 25.25552L26.5077833 22.4997867C26.9295757 21.7957867 27.2887048 21.0517867 27.574639 20.2672533 27.7426187 19.8053867 27.8816365 19.33712 27.9953782 18.86512L31.1090592 18.1237867C31.158558 18.1120533 31.1933124 18.0672533 31.1927858 18.0165867L31.1933124 13.5696533C31.1933124 13.5184533 31.158558 13.4741867 31.1090592 13.46192"/>
  </g>
</svg>
