<svg width="229" height="35" viewBox="0 0 229 35" fill="none" xmlns="http://www.w3.org/2000/svg">
<title>SiteCrafting</title>
<path fill-rule="evenodd" clip-rule="evenodd" d="M38.8965 24.4063L41.3976 21.3711C43.1305 22.819 44.9441 23.7371 47.143 23.7371C48.8742 23.7371 49.919 23.0414 49.919 21.9002V21.8449C49.919 20.7584 49.2589 20.2022 46.0453 19.3676C42.1687 18.3635 39.6676 17.2788 39.6676 13.409V13.3543C39.6676 9.81882 42.4721 7.48047 46.4015 7.48047C49.2042 7.48047 51.5967 8.37096 53.548 9.95831L51.3474 13.1872C49.6453 11.9894 47.9676 11.2655 46.3457 11.2655C44.7233 11.2655 43.8725 12.0171 43.8725 12.9647V13.02C43.8725 14.3001 44.6971 14.7186 48.0228 15.5814C51.925 16.6108 54.1245 18.0304 54.1245 21.4276V21.4835C54.1245 25.3521 51.2096 27.5239 47.0605 27.5239C44.1468 27.5239 41.2058 26.4927 38.8965 24.4063Z" fill="#00ADEE"/>
<mask id="mask0" mask-type="alpha" maskUnits="userSpaceOnUse" x="0" y="0" width="229" height="35">
<path fill-rule="evenodd" clip-rule="evenodd" d="M0 34.8646H229V0H0V34.8646Z" fill="white"/>
</mask>
<g mask="url(#mask0)">
<path fill-rule="evenodd" clip-rule="evenodd" d="M55.7578 27.2449H59.99V7.75879H55.7578V27.2449Z" fill="#00ADEE"/>
<path fill-rule="evenodd" clip-rule="evenodd" d="M67.4508 11.7104H61.5967V7.75879H77.5377V11.7104H71.6824V27.2449H67.4508V11.7104Z" fill="#00ADEE"/>
<path fill-rule="evenodd" clip-rule="evenodd" d="M79.105 7.75879H93.6176V11.5727H83.3111V15.5254H92.3799V19.3393H83.3111V23.4316H93.7548V27.2449H79.105V7.75879Z" fill="#00ADEE"/>
<path class="fill-reverse" fill-rule="evenodd" clip-rule="evenodd" d="M94.4268 17.5579V17.5031C94.4268 11.963 98.5486 7.42578 104.458 7.42578C108.087 7.42578 110.258 8.65058 112.044 10.4321L109.35 13.5768C107.867 12.212 106.355 11.378 104.431 11.378C101.187 11.378 98.8525 14.1065 98.8525 17.4472V17.5031C98.8525 20.8438 101.134 23.6277 104.431 23.6277C106.631 23.6277 107.977 22.7354 109.489 21.3447L112.182 24.1003C110.203 26.2438 108.004 27.5799 104.294 27.5799C98.6311 27.5799 94.4268 23.1539 94.4268 17.5579Z" fill="#1C1C1C"/>
<path class="fill-reverse" fill-rule="evenodd" clip-rule="evenodd" d="M125.693 14.7084C125.693 16.3511 124.514 17.4646 122.451 17.4646H118.164V11.8698H122.369C124.428 11.8698 125.693 12.815 125.693 14.6531V14.7084ZM125.859 20.5281C128.306 19.6088 129.982 17.6318 129.982 14.4865V14.4294C129.982 12.5925 129.404 11.0629 128.331 9.97639C127.067 8.69744 125.172 8 122.725 8H113.93V27.4861H118.164V21.252H121.488L125.611 27.4861H130.559L125.859 20.5281Z" fill="#1C1C1C"/>
<path class="fill-reverse" fill-rule="evenodd" clip-rule="evenodd" d="M138.543 19.0897L141.099 12.7686L143.655 19.0897H138.543ZM143.105 7.61914H139.202L130.958 27.2441H135.273L137.031 22.8746H145.168L146.926 27.2441H151.351L143.105 7.61914Z" fill="#1C1C1C"/>
<path class="fill-reverse" fill-rule="evenodd" clip-rule="evenodd" d="M152.258 7.75879H166.908V11.6562H156.491V15.8044H165.67V19.7007H156.491V27.2449H152.258V7.75879Z" fill="#1C1C1C"/>
<path class="fill-reverse" fill-rule="evenodd" clip-rule="evenodd" d="M174.262 11.7104H168.406V7.75879H184.347V11.7104H178.493V27.2449H174.262V11.7104Z" fill="#1C1C1C"/>
<path class="fill-reverse" fill-rule="evenodd" clip-rule="evenodd" d="M185.902 27.2449H190.134V7.75879H185.902V27.2449Z" fill="#1C1C1C"/>
<path class="fill-reverse" fill-rule="evenodd" clip-rule="evenodd" d="M192.101 7.75879H196.003L205.018 19.756V7.75879H209.196V27.2449H205.595L196.278 14.8574V27.2449H192.101V7.75879Z" fill="#1C1C1C"/>
<path class="fill-reverse" fill-rule="evenodd" clip-rule="evenodd" d="M210.668 17.5579V17.5031C210.668 11.963 214.928 7.42578 220.756 7.42578C224.218 7.42578 226.306 8.3716 228.313 10.0973L225.647 13.3549C224.164 12.1019 222.845 11.378 220.618 11.378C217.54 11.378 215.095 14.1336 215.095 17.4472V17.5031C215.095 21.0657 217.512 23.683 220.921 23.683C222.459 23.683 223.833 23.2928 224.905 22.5135V19.7314H220.644V16.0282H229V24.4905C227.023 26.1885 224.3 27.5799 220.783 27.5799C214.791 27.5799 210.668 23.3216 210.668 17.5579Z" fill="#1C1C1C"/>
<path fill-rule="evenodd" clip-rule="evenodd" d="M17.4544 22.8917L22.3631 12.3035C22.3782 12.2723 22.3712 12.2346 22.3468 12.2105C22.323 12.1864 22.2864 12.1793 22.255 12.1946L11.8258 17.1927C11.7973 17.2062 11.7799 17.2356 11.7793 17.2674C11.7805 17.2998 11.7991 17.3274 11.8269 17.341L15.5896 19.0543L17.3062 22.8911C17.3103 22.8999 17.3167 22.9082 17.3231 22.9152C17.3376 22.9294 17.358 22.9394 17.38 22.9394C17.4108 22.9394 17.4405 22.9211 17.4544 22.8917Z" fill="#00ADEE"/>
<path class="fill-reverse" fill-rule="evenodd" clip-rule="evenodd" d="M27.1326 21.1366C26.6136 22.5632 25.785 23.9016 24.6477 25.0411C20.4974 29.1998 13.8036 29.1657 9.69633 24.9593C6.71581 21.9076 5.91678 17.4992 7.29053 13.7207C7.80946 12.2934 8.63696 10.9568 9.77594 9.81735C13.9262 5.65799 20.6206 5.69389 24.7256 9.89681C27.709 12.9497 28.5051 17.3574 27.1326 21.1366ZM34.3303 14.8559L30.8825 14.0384C30.5432 12.634 29.994 11.2809 29.2485 10.0308L31.1098 6.98798C31.14 6.93972 31.1313 6.87792 31.0923 6.8379L27.6667 3.36774C27.6277 3.32831 27.5656 3.32066 27.5185 3.35068L24.5205 5.23407C23.2752 4.46835 21.9358 3.91511 20.555 3.5761L19.7473 0.0941697C19.7339 0.038845 19.6863 0 19.6293 0H14.7858C14.73 0 14.6806 0.038845 14.6678 0.0941697L13.863 3.57668C12.4834 3.91687 11.1463 4.4713 9.8998 5.23819L6.90011 3.35597C6.85246 3.32655 6.79028 3.33302 6.75134 3.37363L3.32512 6.8432C3.2856 6.88322 3.27921 6.94561 3.30884 6.99387L5.1684 10.0308C4.70409 10.8072 4.30835 11.6264 3.99339 12.491C3.80686 13.0031 3.65344 13.5228 3.52792 14.0466L0.0923966 14.8635C0.0389344 14.877 0 14.9259 0 14.9824V19.8898C0 19.9457 0.0389344 19.9958 0.0929777 20.0081L3.54245 20.8268C3.88298 22.2294 4.43213 23.5807 5.17653 24.8296L3.31349 27.876C3.28502 27.9243 3.29141 27.9867 3.33093 28.0261L6.75657 31.4962C6.79609 31.5363 6.85769 31.5433 6.90534 31.5133L9.90387 29.6299C11.1323 30.3886 12.4677 30.9453 13.8676 31.2885L14.676 34.7704C14.6882 34.8257 14.7375 34.8646 14.7933 34.8646H19.6375C19.6938 34.8646 19.7421 34.8257 19.7549 34.7704L20.5585 31.2914C21.959 30.9471 23.2921 30.3856 24.5229 29.6252L27.5231 31.508C27.5708 31.538 27.6318 31.531 27.6719 31.4909L31.097 28.0208C31.1371 27.9814 31.144 27.919 31.1144 27.8707L29.2525 24.8296C29.718 24.0527 30.1143 23.2317 30.4299 22.3659C30.6152 21.8562 30.7686 21.3394 30.8942 20.8186L34.3303 20.0005C34.3849 19.9875 34.4233 19.9381 34.4227 19.8822L34.4233 14.9748C34.4233 14.9182 34.3849 14.8694 34.3303 14.8559Z" fill="#1C1C1C"/>
</g>
</svg>
